<?xml version="1.0" encoding="utf-8"?>
<!-- Generator: Adobe Illustrator 23.0.6, SVG Export Plug-In . SVG Version: 6.00 Build 0)  -->
<svg version="1.1" id="Capa_1" xmlns="http://www.w3.org/2000/svg" xmlns:xlink="http://www.w3.org/1999/xlink" x="0px" y="0px"
	 viewBox="0 0 512 512" style="enable-background:new 0 0 512 512;" xml:space="preserve">
<style type="text/css">
	.st0{fill:#66CC00;}
</style>
<g>
	<g>
		<path class="st0" d="M256,0C114.8,0,0,114.8,0,256s114.8,256,256,256s256-114.8,256-256S397.2,0,256,0z M405.3,266.7
			c0,5.9-4.8,10.7-10.7,10.7H175.1l45.8,45.8c2,2,3.1,4.7,3.1,7.5V352c0,4.3-2.6,8.2-6.6,9.9c-4,1.7-8.6,0.7-11.6-2.3l-96-96
			c-4.2-4.2-4.2-10.9,0-15.1l96-96c2-2,4.8-3.1,7.5-3.1c1.4,0,2.8,0.3,4.1,0.8c4,1.6,6.6,5.5,6.6,9.9v21.3c0,2.8-1.1,5.5-3.1,7.5
			l-45.8,45.8h219.6c5.9,0,10.7,4.8,10.7,10.7V266.7z"/>
	</g>
</g>
</svg>
